<?xml version="1.0" encoding="iso-8859-1"?>
<!-- Generator: Adobe Illustrator 19.0.0, SVG Export Plug-In . SVG Version: 6.00 Build 0)  -->
<svg version="1.1" id="Layer_1" xmlns="http://www.w3.org/2000/svg" xmlns:xlink="http://www.w3.org/1999/xlink" x="0px" y="0px"
	 viewBox="0 0 512 512" style="enable-background:new 0 0 512 512;" xml:space="preserve">
<g>
	<path style="fill:#FF6464;" d="M299.322,205.978c16.095-9.661,36.126-21.684,36.126-51.496c0-21.905-17.82-39.724-39.724-39.724
		c-21.905,0-39.724,17.82-39.724,39.724c0,4.875,3.953,8.828,8.828,8.828s8.828-3.953,8.828-8.828
		c0-12.169,9.9-22.069,22.069-22.069c12.169,0,22.069,9.9,22.069,22.069c0,18.86-10.472,26.103-27.557,36.359
		C274.983,199.997,256,211.391,256,238.345c0,4.875,3.953,8.828,8.828,8.828h61.793c4.875,0,8.828-3.953,8.828-8.828
		c0-4.875-3.953-8.828-8.828-8.828h-51.77C277.906,219.352,286.666,213.576,299.322,205.978z"/>
	<path style="fill:#FF6464;" d="M423.724,203.034h-8.828v-79.448c0-4.875-3.953-8.828-8.828-8.828s-8.828,3.953-8.828,8.828v79.448
		h-33.37l15.543-77.717c0.956-4.781-2.144-9.431-6.925-10.388c-4.783-0.957-9.431,2.144-10.388,6.925l-17.655,88.276
		c-0.519,2.593,0.153,5.283,1.83,7.328c1.677,2.045,4.182,3.231,6.827,3.231h44.138v17.655c0,4.875,3.953,8.828,8.828,8.828
		c4.875,0,8.828-3.953,8.828-8.828V220.69h8.828c4.875,0,8.828-3.953,8.828-8.828C432.551,206.987,428.599,203.034,423.724,203.034z
		"/>
</g>
<path style="fill:#5A4146;" d="M150.069,114.759c-63.379,0-114.759,51.379-114.759,114.759v203.034h229.517V229.517
	C264.828,166.138,213.448,114.759,150.069,114.759z"/>
<path style="fill:#E4EAF6;" d="M512,176.552C512,79.2,432.799,0,335.448,0C270.4,0,210.807,35.605,179.925,92.919
	c-2.313,4.292-0.708,9.646,3.584,11.958c4.291,2.313,9.646,0.708,11.959-3.584c27.797-51.59,81.434-83.638,139.98-83.638
	c87.616,0,158.897,71.281,158.897,158.897s-71.281,158.897-158.897,158.897c-1.692,0-3.386-0.036-5.081-0.089l11.324-11.324
	c3.448-3.447,3.448-9.036,0-12.483c-3.447-3.448-9.036-3.448-12.483,0l-26.483,26.483c-3.448,3.447-3.448,9.036,0,12.483
	l26.483,26.483c1.724,1.724,3.982,2.585,6.242,2.585c2.26,0,4.519-0.862,6.242-2.585c3.448-3.447,3.448-9.036,0-12.483
	l-11.498-11.497c1.752,0.05,3.506,0.083,5.255,0.083C432.799,353.103,512,273.903,512,176.552z"/>
<path style="fill:#E6AF78;" d="M283.841,434.589l-78.77-32.821c-6.579-2.741-10.865-9.17-10.865-16.298v-22.435h-88.276v22.436
	c0,7.127-4.286,13.556-10.865,16.298l-78.77,32.821C6.429,438.7,0,448.343,0,459.034v35.31C0,504.095,7.905,512,17.655,512h264.828
	c9.75,0,17.655-7.905,17.655-17.655v-35.31C300.138,448.343,293.709,438.7,283.841,434.589z"/>
<path style="fill:#E4EAF6;" d="M283.841,434.589l-63.644-26.518c-13.364,25.064-39.742,42.136-70.129,42.136
	s-56.765-17.073-70.129-42.136l-63.644,26.518C6.429,438.7,0,448.343,0,459.034v35.31C0,504.095,7.905,512,17.655,512h264.828
	c9.75,0,17.655-7.905,17.655-17.655v-35.31C300.138,448.343,293.709,438.7,283.841,434.589z"/>
<g>
	<path style="fill:#D2555A;" d="M16.297,434.589C6.429,438.7,0,448.343,0,459.034v35.31C0,504.095,7.905,512,17.655,512h88.276
		c-26.483-44.138-42.295-97.134-42.295-97.134L16.297,434.589z"/>
	<path style="fill:#D2555A;" d="M283.841,434.589c9.868,4.111,16.297,13.754,16.297,24.446v35.31c0,9.75-7.905,17.655-17.655,17.655
		h-88.276c26.483-44.137,42.295-97.134,42.295-97.134L283.841,434.589z"/>
</g>
<path style="fill:#D29B6E;" d="M194.207,363.034h-88.276v22.436c0,7.127-4.286,13.556-10.865,16.298l-12.302,5.127
	C176.908,430.9,194.207,363.034,194.207,363.034z"/>
<path style="fill:#C04B50;" d="M43.027,468.738L7.593,440.554C2.846,445.409,0,451.974,0,459.034v35.31
	C0,504.095,7.905,512,17.655,512h35.31v-22.582C52.966,481.373,49.309,473.764,43.027,468.738z"/>
<path style="fill:#F0C087;" d="M143.844,209.469c-19.671,20.583-45.173,35.471-73.823,42.26c-4.348,1.031-7.364,4.958-6.959,9.408
	l5.867,64.54c1.058,11.636,7.804,21.995,18.017,27.669l45.974,25.54c10.665,5.924,23.631,5.924,34.296,0l45.974-25.54
	c10.214-5.674,16.959-16.033,18.017-27.669l5.867-64.54c0.405-4.45-2.612-8.377-6.959-9.408c-28.65-6.79-54.152-21.677-73.823-42.26
	C152.927,205.948,147.211,205.948,143.844,209.469z"/>
<path style="fill:#E6AF78;" d="M156.281,209.458c-3.364-3.521-9.069-3.512-12.441,0.001c-11.252,11.721-24.447,21.517-38.984,29.107
	c-10.923,5.71-22.581,10.211-34.857,13.158c-4.335,1.041-7.342,4.952-6.94,9.393l5.869,64.561
	c1.058,11.637,7.804,21.996,18.018,27.671l45.973,25.54c3.822,2.123,7.945,3.454,12.147,4.055l-13.33-23.995
	c-5.375-9.675-8.669-20.366-9.671-31.389l-5.764-63.417c-0.598-6.574,2.496-12.977,8.108-16.452
	c9.151-5.667,17.771-12.174,25.66-19.556c23.357,21.858,52.761,36.759,84.538,42.572l0.554,0.102l0.559,0.066l0.463,0.054
	l0.89-9.789c0.405-4.45-2.612-8.377-6.959-9.408C201.46,244.939,175.955,230.046,156.281,209.458z"/>
<path style="fill:#D7DEED;" d="M220.198,408.071c-13.364,25.064-39.742,42.136-70.129,42.136s-56.765-17.073-70.129-42.136
	l-16.305,6.794c16.075,31.434,48.703,52.997,86.433,52.997s70.358-21.564,86.433-52.997L220.198,408.071z"/>
<path style="fill:#464655;" d="M237.689,307.552c-0.439,1.5-11.5,36.724-78.793,36.724v17.655c81.655,0,95.285-47.706,95.828-49.741
	L237.689,307.552z"/>
<circle style="fill:#5B5D6E;" cx="158.897" cy="353.103" r="8.828"/>
<g>
	<path style="fill:#707487;" d="M247.172,264.828h-10.433l-4.815,52.966h15.249c4.875,0,8.828-3.953,8.828-8.828v-35.31
		C256,268.78,252.047,264.828,247.172,264.828z"/>
	<path style="fill:#707487;" d="M63.399,264.828H52.966c-4.875,0-8.828,3.953-8.828,8.828v35.31c0,4.875,3.953,8.828,8.828,8.828
		h15.247L63.399,264.828z"/>
</g>
<g>
	<path style="fill:#C04B50;" d="M53.652,419.025c8.16,23.823,21.286,59.261,37.422,92.975h19.62
		c-17.519-35.277-32.043-74.578-40.679-99.794L53.652,419.025z"/>
	<path style="fill:#C04B50;" d="M257.111,468.738l35.433-28.184c4.747,4.855,7.593,11.42,7.593,18.481v35.31
		c0,9.75-7.905,17.655-17.655,17.655h-35.31v-22.582C247.172,481.373,250.829,473.764,257.111,468.738z"/>
	<path style="fill:#C04B50;" d="M246.486,419.025c-8.16,23.823-21.286,59.261-37.422,92.975h-19.62
		c17.519-35.277,32.043-74.578,40.679-99.794L246.486,419.025z"/>
</g>
<g>
</g>
<g>
</g>
<g>
</g>
<g>
</g>
<g>
</g>
<g>
</g>
<g>
</g>
<g>
</g>
<g>
</g>
<g>
</g>
<g>
</g>
<g>
</g>
<g>
</g>
<g>
</g>
<g>
</g>
</svg>
