<?xml version="1.0" encoding="iso-8859-1"?>
<!-- Generator: Adobe Illustrator 19.0.0, SVG Export Plug-In . SVG Version: 6.00 Build 0)  -->
<svg version="1.1" id="Layer_1" xmlns="http://www.w3.org/2000/svg" xmlns:xlink="http://www.w3.org/1999/xlink" x="0px" y="0px"
	 viewBox="0 0 423.543 423.543" style="enable-background:new 0 0 423.543 423.543;" xml:space="preserve">
<g>
	<rect x="11.273" y="109.308" style="fill:#CCCCCC;" width="250.254" height="208.024"/>
	<rect y="109.308" style="fill:#CCCCCC;" width="272.8" height="49.01"/>
	<path style="fill:#FC7A51;" d="M200.458,45.25c-6.798-6.798-16.17-11.002-26.528-11.002s-19.73,4.203-26.528,11.002
		S136.4,61.42,136.4,71.778c0-10.359-4.203-19.73-11.002-26.528c-6.798-6.798-16.17-11.002-26.528-11.002S79.14,38.451,72.341,45.25
		C65.543,52.048,61.34,61.42,61.34,71.778c0,20.716,16.813,37.53,37.53,37.53h13.943V317.33h47.18V109.308h13.937
		c20.717,0,37.53-16.814,37.53-37.53C211.46,61.42,207.257,52.048,200.458,45.25z M98.87,88.892
		c-9.458,0-17.114-7.656-17.114-17.114c0-4.718,1.909-9.007,5.018-12.095c3.088-3.11,7.377-5.018,12.095-5.018
		s9.007,1.908,12.095,5.018c3.11,3.088,5.018,7.378,5.018,12.095v17.114H98.87z M173.93,88.892h-17.114V71.778
		c0-4.718,1.909-9.007,5.018-12.095c3.088-3.11,7.377-5.018,12.095-5.018s9.007,1.908,12.095,5.018
		c3.11,3.088,5.018,7.378,5.018,12.095C191.044,81.236,183.388,88.892,173.93,88.892z"/>
	<rect x="11.273" y="158.321" style="opacity:0.2;fill:#4D4D4D;enable-background:new    ;" width="101.54" height="17.47"/>
	<rect x="159.993" y="158.321" style="opacity:0.2;fill:#4D4D4D;enable-background:new    ;" width="101.53" height="17.47"/>
	<g>
		<g>
			<rect x="193.444" y="221.365" style="fill:#E6E6E6;" width="28.297" height="45"/>
			<polygon style="fill:#E6E6E6;" points="179.415,228.542 235.77,228.542 207.593,200.365 			"/>
		</g>
		<g>
			<rect x="51.059" y="221.365" style="fill:#E6E6E6;" width="28.297" height="45"/>
			<polygon style="fill:#E6E6E6;" points="37.03,228.542 93.385,228.542 65.207,200.365 			"/>
		</g>
	</g>
	<path style="fill:#E6E6E6;" d="M79.123,333.113c12.47,0,22.618,10.148,22.618,22.618c0,12.469-10.148,22.618-22.618,22.618
		S56.505,368.2,56.505,355.73C56.505,343.26,66.654,333.113,79.123,333.113z"/>
	<path style="fill:#666666;" d="M112.683,355.73c0,0.73-0.024,1.46-0.071,2.182c-1.122,17.52-15.683,31.382-33.486,31.382
		c-17.81,0-32.371-13.862-33.494-31.382c-0.047-0.722-0.071-1.452-0.071-2.182c0-5.275,1.217-10.267,3.399-14.71
		c5.44-11.162,16.908-18.847,30.165-18.847C97.66,322.174,112.683,337.198,112.683,355.73z M92.895,355.73
		c0-7.59-6.178-13.768-13.768-13.768s-13.768,6.178-13.768,13.768s6.178,13.768,13.768,13.768S92.895,363.321,92.895,355.73z"/>
	<path style="fill:#E6E6E6;" d="M356.472,333.113c12.47,0,22.618,10.148,22.618,22.618c0,12.469-10.148,22.618-22.618,22.618
		s-22.618-10.148-22.618-22.618C333.854,343.26,344.002,333.113,356.472,333.113z"/>
	<path style="fill:#F9DE58;" d="M415.123,243.231v97.79h-20.78c-0.4-1.06-0.86-2.09-1.36-3.11c-6.87-14.06-20.86-22.8-36.51-22.8
		c-17.22,0-31.97,10.75-37.88,25.91c-1.76,4.56-2.74,9.52-2.74,14.71c0,0.73,0.02,1.47,0.06,2.19h-31.84V157.318
		c0-4.218,3.419-7.637,7.637-7.637h86.283c11.12,0,20.14,9.02,20.14,20.13v48.28c0,7.1,4.36,13.19,10.55,15.73
		C412.543,235.4,415.123,239.071,415.123,243.231z"/>
	<path style="fill:#B3B3B3;" d="M423.543,341.013v16.9h-26.505c0.039-0.722,0.063-1.452,0.063-2.182
		c0-5.102-0.926-10.039-2.755-14.718H423.543z"/>
	<path style="fill:#666666;" d="M322.986,357.913c-0.047-0.722-0.071-1.452-0.071-2.182c0-18.533,15.024-33.556,33.556-33.556
		c13.258,0,24.718,7.685,30.165,18.839c2.174,4.443,3.399,9.443,3.399,14.718c0,0.73-0.024,1.46-0.071,2.174
		c-1.122,17.528-15.683,31.39-33.494,31.39C338.669,389.295,324.109,375.433,322.986,357.913z M370.24,355.73
		c0-7.59-6.178-13.768-13.768-13.768s-13.768,6.178-13.768,13.768s6.178,13.768,13.768,13.768S370.24,363.321,370.24,355.73z"/>
	<path style="opacity:0.2;fill:#4D4D4D;enable-background:new    ;" d="M297.613,149.68v191.34h-13.54V157.318
		c0-4.218,3.419-7.637,7.637-7.637h5.903V149.68z"/>
	<path style="fill:#FFFFFF;" d="M406.032,320.467c-9.787,0-17.72-7.934-17.72-17.72c0-9.787,7.934-17.72,17.72-17.72V320.467z"/>
	<g>
		<path style="fill:#FFFFFF;" d="M358.724,169.778h-45.785c-3.034,0-5.494,2.46-5.494,5.494v46.604c0,3.034,2.46,5.494,5.494,5.494
			h45.785V169.778z"/>
		<path style="fill:#FFFFFF;" d="M380.251,169.778h-9.143v57.591h9.143c3.034,0,5.494-2.459,5.494-5.494v-46.604
			C385.745,172.238,383.285,169.778,380.251,169.778z"/>
	</g>
	<path style="fill:#B3B3B3;" d="M318.597,341.017h-34.524v-24.556H2.116v24.552v1v15.9h36.445c-0.039-0.722-0.063-1.452-0.063-2.182
		c0-4.741,0.81-9.337,2.391-13.718h76.469c1.542,4.285,2.385,8.903,2.385,13.719c0,0.732-0.023,1.464-0.056,2.184h196.231
		c-0.045-0.72-0.068-1.453-0.068-2.184C315.849,350.54,316.829,345.576,318.597,341.017z"/>
</g>
<g>
</g>
<g>
</g>
<g>
</g>
<g>
</g>
<g>
</g>
<g>
</g>
<g>
</g>
<g>
</g>
<g>
</g>
<g>
</g>
<g>
</g>
<g>
</g>
<g>
</g>
<g>
</g>
<g>
</g>
</svg>
