<?xml version="1.0" encoding="iso-8859-1"?>
<!-- Generator: Adobe Illustrator 19.0.0, SVG Export Plug-In . SVG Version: 6.00 Build 0)  -->
<svg version="1.1" id="Layer_1" xmlns="http://www.w3.org/2000/svg" xmlns:xlink="http://www.w3.org/1999/xlink" x="0px" y="0px"
	 viewBox="0 0 410.699 410.699" style="enable-background:new 0 0 410.699 410.699;" xml:space="preserve">
<g>
	<circle style="fill:#F9DE58;" cx="140.807" cy="374.698" r="36.001"/>
	<circle style="fill:#D6B71D;" cx="140.807" cy="374.698" r="23.352"/>
	<circle style="fill:#F9DE58;" cx="184.807" cy="374.698" r="36.001"/>
	<circle style="fill:#D6B71D;" cx="184.807" cy="374.698" r="23.352"/>
	<path style="fill:#F9DE58;" d="M234.376,226.648H51.553v17.874h-3.404c-8.928,0-16.171-7.243-16.171-16.171
		c0-4.46,1.813-8.511,4.741-11.431c2.919-2.928,6.971-4.741,11.431-4.741h169.247C225.967,212.179,233.074,218.443,234.376,226.648"
		/>
	<path style="fill:#77BC4A;" d="M264.515,221.148H57.054v17.873h167.5c9.499,0,17.193,7.694,17.193,17.193v100.262v4.937
		c0,0.281-0.009,0.553-0.026,0.826h77.461v-141.09L264.515,221.148"/>
	<path style="fill:#77BC4A;" d="M270.015,215.648H62.553v17.873h167.501c9.498,0,17.193,7.694,17.193,17.193v100.262v4.937
		c0,0.281-0.008,0.553-0.026,0.826h77.461v-141.09L270.015,215.648"/>
	<path style="fill:#86D359;" d="M259.015,226.648H51.553v17.874h167.501c9.498,0,17.193,7.694,17.193,17.193v100.262v4.936
		c0,0.281-0.008,0.553-0.026,0.826h77.461v-141.09L259.015,226.648"/>
	<path style="fill:#77BC4A;" d="M296.43,267.738v58.914c-10.741,4.508-19.331,13.099-23.839,23.839h-36.34v-88.779
		c0-9.499-7.694-17.193-17.193-17.193h53.797C277.432,254.973,285.896,263.322,296.43,267.738"/>
	<path style="fill:#29ABE2;" d="M378.721,182.678v103.82c0,6.7-5.43,12.13-12.13,12.13H180.9c-6.7,0-12.13-5.43-12.13-12.13v-103.82
		c0-6.7,5.43-12.13,12.13-12.13h185.69C373.29,170.548,378.721,175.977,378.721,182.678"/>
	<polyline style="fill:#4D4D4D;" points="378.721,197.798 378.721,229.117 168.77,229.117 168.77,197.798 378.721,197.798 	"/>
	<path style="fill:#808080;" d="M95.935,0.001h115.72c8.141,0,14.74,6.599,14.74,14.74v235.647c0,8.141-6.599,14.74-14.74,14.74
		H95.935c-8.141,0-14.74-6.599-14.74-14.74V14.742C81.195,6.601,87.794,0.001,95.935,0.001"/>
	<polyline style="fill:#FFFFFF;" points="219.546,34.997 219.546,225.454 88.047,225.454 88.047,34.997 219.546,34.997 	"/>
	<circle style="fill:#4D4D4D;" cx="153.796" cy="246.254" r="11.382"/>
	<circle style="fill:#F9DE58;" cx="228.807" cy="374.698" r="36.001"/>
	<circle style="fill:#D6B71D;" cx="228.807" cy="374.698" r="23.352"/>
	<path style="fill:#E86E4D;" d="M49.17,244.517v139.59c-9.5,0-17.19-7.7-17.19-17.2v-138.56c0,8.93,7.24,16.17,16.17,16.17
		L49.17,244.517L49.17,244.517z"/>
	<path style="fill:#2BE0C6;" d="M128.273,155.03h11.305h33.921h11.305l11.83-48.18h-80.192L128.273,155.03 M153.527,120.866h-12.462
		l-1.074-7.994h13.535v7.994 M159.55,112.872h13.535l-1.074,7.994h-12.462v-7.994 M134.99,120.866h-8.814l-1.941-7.994h9.681
		L134.99,120.866 M127.637,126.889h8.161l1.133,8.431h-7.247L127.637,126.889 M141.876,126.889h11.653v8.431h-10.52L141.876,126.889
		 M159.55,126.889h11.653l-1.133,8.431h-10.52V126.889 M177.279,126.889h8.161l-2.047,8.431h-7.246L177.279,126.889
		 M178.089,120.866l1.074-7.994h9.681l-1.941,7.994H178.089 M133.008,149.008l-1.861-7.665h6.593l1.03,7.665H133.008
		 M143.816,141.342h9.711v7.665h-8.682L143.816,141.342 M159.55,149.008v-7.665h9.711l-1.03,7.665H159.55 M174.309,149.008
		l1.03-7.665h6.593l-1.861,7.665H174.309"/>
	<polygon style="fill:#2BE0C6;" points="116.443,106.85 122.644,106.85 118.387,89.512 99.862,89.512 99.862,95.535 113.664,95.535 
			"/>
	<circle style="fill:#2BE0C6;" cx="143.878" cy="165.568" r="6.544"/>
	<path style="fill:#2BE0C6;" d="M183.146,165.568c0-3.614-2.93-6.544-6.544-6.544c-3.614,0-6.544,2.93-6.544,6.544
		c0,3.614,2.93,6.544,6.544,6.544C180.216,172.112,183.146,169.182,183.146,165.568"/>
	<path style="fill:#FFFFFF;" d="M211.145,0h-95.751l95.947,0.001C211.275,0,211.21,0,211.145,0"/>
	<path style="fill:#6EC6EB;" d="M211.358,265.128h-15.166v0.002h14.951C211.215,265.13,211.286,265.129,211.358,265.128
		 M226.395,170.548L226.395,170.548v27.25V170.548"/>
	<path style="fill:#A9A9A9;" d="M211.34,0.001h-95.947l10.665,34.996h93.487v190.457h-35.445l12.091,39.676l15.165-0.002
		c8.324-0.115,15.037-6.899,15.037-15.25v-20.761v-31.32v-27.25V15.251C226.395,6.895,219.673,0.107,211.34,0.001"/>
	<path style="fill:#FFFFFF;" d="M169.261,141.342h-9.711v3.551l1.254,4.114h7.428L169.261,141.342 M181.932,141.342h-6.593
		l-1.03,7.665h5.762L181.932,141.342 M171.203,126.889H159.55v8.431h10.52L171.203,126.889 M185.44,126.889h-8.161l-1.133,8.431
		h7.246L185.44,126.889 M153.527,112.872h-3.736l2.436,7.994h1.3V112.872 M173.085,112.872H159.55v7.994h12.462L173.085,112.872
		 M188.844,112.872h-9.681l-1.074,7.994h8.814L188.844,112.872 M176.602,172.112c-3.614,0-6.544-2.93-6.544-6.544
		c0-3.614,2.93-6.544,6.544-6.544c3.614,0,6.544,2.93,6.544,6.544S180.216,172.112,176.602,172.112 M219.546,34.997h-93.487
		l21.897,71.852h48.679l-11.83,48.18h-11.306h-10.86l21.462,70.424h35.445V34.997"/>
	<path style="fill:#6FEAD8;" d="M174.309,149.008l1.03-7.665h6.593l-1.861,7.665H174.309 M159.55,135.32v-8.431h11.653l-1.133,8.431
		H159.55 M176.147,135.32l1.133-8.431h8.161l-2.047,8.431H176.147 M159.55,120.866v-7.994h13.535l-1.074,7.994H159.55
		 M178.089,120.866l1.074-7.994h9.681l-1.941,7.994H178.089 M196.635,106.85h-48.679l1.835,6.022h3.736v7.994h-1.3l7.323,24.028
		v-3.551h9.711l-1.03,7.665h-7.428l1.835,6.022h10.86h11.305L196.635,106.85"/>
	<path style="fill:#6FEAD8;" d="M176.602,159.023c-3.614,0-6.544,2.93-6.544,6.544c0,3.614,2.93,6.544,6.544,6.544
		c3.614,0,6.544-2.93,6.544-6.544C183.146,161.953,180.216,159.023,176.602,159.023"/>
	<path style="fill:#6EC6EB;" d="M378.721,229.117h-90.74l21.19,69.51h57.42c6.7,0,12.13-5.43,12.13-12.13V229.117 M366.591,170.548
		h-96.45l8.3,27.25h100.28v-15.12C378.721,175.977,373.29,170.548,366.591,170.548"/>
	<polyline style="fill:#868686;" points="378.721,197.798 378.721,197.798 278.441,197.798 287.98,229.117 378.721,229.117 
		378.721,197.798 	"/>
	<path style="fill:#FC7A51;" d="M236.251,261.717v105.19c0,0.29-0.01,0.56-0.03,0.83c-0.42,9.12-7.95,16.37-17.17,16.37H49.17
		c-9.5,0-17.19-7.7-17.19-17.2v-138.56c0,8.93,7.24,16.17,16.17,16.17h170.9C228.55,244.517,236.251,252.217,236.251,261.717z"/>
	<rect x="236.544" y="298.341" style="fill:#77BC4A;" width="77.138" height="9.333"/>
	<circle style="fill:#F9DE58;" cx="203.21" cy="314.313" r="14"/>
	<path style="fill:#E86E4D;" d="M49.17,244.517v139.59c-9.5,0-17.19-7.7-17.19-17.2v-138.56c0,8.93,7.24,16.17,16.17,16.17
		L49.17,244.517L49.17,244.517z"/>
</g>
<g>
</g>
<g>
</g>
<g>
</g>
<g>
</g>
<g>
</g>
<g>
</g>
<g>
</g>
<g>
</g>
<g>
</g>
<g>
</g>
<g>
</g>
<g>
</g>
<g>
</g>
<g>
</g>
<g>
</g>
</svg>
