<svg id="Layer_1" enable-background="new 0 0 256 256" height="512" viewBox="0 0 256 256" width="512" xmlns="http://www.w3.org/2000/svg"><path d="m147.082 132.586h-92c-4.418 0-8-3.582-8-8v-108.586c0-4.418 3.582-8 8-8h92c4.418 0 8 3.582 8 8v108.586c0 4.418-3.581 8-8 8z" fill="#e0ebfc"/><path d="m147.082 134.586h-92c-5.514 0-10-4.486-10-10v-108.586c0-5.514 4.486-10 10-10h92c5.514 0 10 4.486 10 10v108.586c0 5.514-4.486 10-10 10zm-92-124.586c-3.309 0-6 2.691-6 6v108.586c0 3.309 2.691 6 6 6h92c3.309 0 6-2.691 6-6v-108.586c0-3.309-2.691-6-6-6z" fill="#3762cc"/><circle cx="145.911" cy="229.241" fill="#4671c6" r="18.759"/><path d="m145.911 239.814c-5.831 0-10.574-4.743-10.574-10.573s4.743-10.573 10.574-10.573c5.83 0 10.573 4.743 10.573 10.573s-4.743 10.573-10.573 10.573z" fill="#f9cfcf"/><path d="m145.911 250c-11.447 0-20.759-9.313-20.759-20.759s9.313-20.759 20.759-20.759 20.759 9.313 20.759 20.759-9.313 20.759-20.759 20.759zm0-37.519c-9.241 0-16.759 7.518-16.759 16.759s7.517 16.76 16.759 16.76 16.759-7.518 16.759-16.759-7.518-16.76-16.759-16.76z" fill="#3762cc"/><circle cx="66.846" cy="229.241" fill="#4671c6" r="18.759"/><path d="m66.846 239.814c-5.831 0-10.574-4.743-10.574-10.573s4.743-10.573 10.574-10.573c5.83 0 10.573 4.743 10.573 10.573s-4.743 10.573-10.573 10.573z" fill="#f9cfcf"/><path d="m66.846 250c-11.447 0-20.759-9.313-20.759-20.759s9.313-20.759 20.759-20.759 20.759 9.313 20.759 20.759-9.312 20.759-20.759 20.759zm0-37.519c-9.241 0-16.759 7.518-16.759 16.759s7.518 16.76 16.759 16.76 16.759-7.518 16.759-16.759-7.518-16.76-16.759-16.76z" fill="#3762cc"/><path d="m72.362 210.481v14.052c0 2.539-2.058 4.597-4.597 4.597h-1.32c-1.961 0-3.706-1.244-4.345-3.097l-5.367-15.551h15.629z" fill="#a4c9ff"/><path d="m151.427 210.481v14.052c0 2.539-2.058 4.597-4.597 4.597h-1.32c-1.961 0-3.706-1.244-4.345-3.097l-5.367-15.551h15.629z" fill="#a4c9ff"/><path d="m67.766 231.13h-1.32c-2.813 0-5.318-1.787-6.236-4.445l-5.367-15.551c-.211-.611-.113-1.287.262-1.813.375-.527.982-.839 1.628-.839h15.629c1.104 0 2 .896 2 2v14.051c0 3.637-2.959 6.597-6.596 6.597zm-8.226-18.649 4.451 12.898c.361 1.047 1.348 1.75 2.455 1.75h1.32c1.432 0 2.597-1.165 2.597-2.597v-12.051z" fill="#3762cc"/><path d="m146.83 231.13h-1.32c-2.813 0-5.319-1.787-6.236-4.445l-5.366-15.551c-.211-.611-.113-1.287.262-1.813.375-.527.982-.839 1.628-.839h15.629c1.104 0 2 .896 2 2v14.051c0 3.637-2.96 6.597-6.597 6.597zm-8.226-18.649 4.451 12.898c.361 1.047 1.348 1.75 2.455 1.75h1.32c1.432 0 2.597-1.165 2.597-2.597v-12.051z" fill="#3762cc"/><path d="m224.569 82.387h-33.615c-2.226 0-4.031-1.805-4.031-4.031v-10.078c0-2.226 1.805-4.031 4.031-4.031h33.615c2.226 0 4.031 1.805 4.031 4.031v10.078c0 2.226-1.805 4.031-4.031 4.031z" fill="#f9a7a7"/><path d="m224.569 84.387h-33.615c-3.325 0-6.031-2.706-6.031-6.031v-10.078c0-3.326 2.706-6.031 6.031-6.031h33.615c3.326 0 6.031 2.706 6.031 6.031v10.078c0 3.325-2.705 6.031-6.031 6.031zm-33.615-18.14c-1.12 0-2.031.911-2.031 2.031v10.078c0 1.12.911 2.031 2.031 2.031h33.615c1.12 0 2.031-.911 2.031-2.031v-10.078c0-1.12-.911-2.031-2.031-2.031z" fill="#3762cc"/><path d="m175.509 82.217c.304-2.202 2.071-3.862 4.108-3.862h7.305v-10.077h-7.305c-7.043 0-13.101 5.399-14.091 12.56l-1.175 8.504h4.237c1.454 0 2.836.628 3.793 1.722.958 1.094 1.395 2.548 1.201 3.989z" fill="#a4c9ff"/><path d="m173.584 97.054c-.094 0-.188-.007-.284-.021-1.088-.155-1.847-1.158-1.7-2.247.117-.87-.147-1.747-.724-2.406-.578-.661-1.412-1.039-2.288-1.039h-4.237c-.578 0-1.128-.25-1.508-.686s-.553-1.015-.473-1.588l1.175-8.504c1.126-8.144 8.036-14.286 16.072-14.286h7.305c1.104 0 2 .896 2 2v10.078c0 1.104-.896 2-2 2h-7.305c-1.027 0-1.961.938-2.127 2.135-.001.008-.002.015-.003.023l-1.927 12.837c-.149.991-1.002 1.704-1.976 1.704zm-6.938-9.712h1.941c1.421 0 2.793.429 3.947 1.211l.995-6.622c.445-3.179 3.061-5.575 6.087-5.575h5.305v-6.078h-5.305c-6.049 0-11.255 4.657-12.11 10.833zm8.863-5.125h.01z" fill="#3762cc"/><path d="m121.417 58.219-.015-.007c2.835-2.172 5.175-5.21 6.619-8.978 4.063-10.603-.424-22.836-10.023-27.324-6.853-3.205-14.454-1.589-19.722 3.455-1.059 1.014-2.778 1.061-3.86.07-5.173-4.737-12.477-6.279-19.152-3.304-9.66 4.306-14.318 16.412-10.404 27.039 1.391 3.778 3.689 6.843 6.493 9.053l-.015.007 21.088 17.36c2.045 1.684 5.077 1.706 7.15.053z" fill="#f9a7a7"/><path d="m96.034 78.872c-1.736 0-3.471-.581-4.878-1.739l-21.088-17.36c-.054-.044-.105-.091-.153-.14-3.105-2.509-5.498-5.882-6.931-9.772-4.264-11.58.879-24.839 11.466-29.558 7.188-3.206 15.356-1.803 21.317 3.655.296.271.822.252 1.127-.039 6.004-5.75 14.622-7.251 21.952-3.822 10.513 4.916 15.467 18.307 11.043 29.852-1.487 3.881-3.928 7.227-7.067 9.692-.049.049-.102.096-.158.141l-21.84 17.422c-1.394 1.112-3.093 1.668-4.79 1.668zm-23.234-22.032 20.898 17.205c1.312 1.079 3.303 1.095 4.631.033l21.647-17.268c.065-.066.135-.128.21-.186 2.65-2.03 4.714-4.833 5.968-8.106 3.689-9.627-.349-20.751-9.002-24.797-5.912-2.763-12.615-1.582-17.492 3.088-1.838 1.76-4.735 1.804-6.595.1-4.767-4.367-11.277-5.498-16.987-2.952-8.702 3.879-12.892 14.879-9.341 24.521 1.208 3.28 3.232 6.107 5.854 8.174.075.057.144.121.209.188z" fill="#3762cc"/><circle cx="123.598" cy="61.774" fill="#ffea92" r="15.092"/><path d="m132.091 58.834h-4.9c-.361 0-.653-.293-.653-.653v-4.9c0-.361-.293-.653-.653-.653h-4.573c-.361 0-.653.293-.653.653v4.9c0 .361-.293.653-.653.653h-4.9c-.361 0-.653.293-.653.653v4.573c0 .361.293.653.653.653h4.9c.361 0 .653.293.653.653v4.9c0 .361.293.653.653.653h4.573c.361 0 .653-.293.653-.653v-4.9c0-.361.293-.653.653-.653h4.9c.361 0 .653-.293.653-.653v-4.573c.001-.36-.292-.653-.653-.653z" fill="#f9a7a7"/><path d="m123.598 78.866c-9.424 0-17.092-7.667-17.092-17.092s7.667-17.092 17.092-17.092 17.092 7.667 17.092 17.092-7.668 17.092-17.092 17.092zm0-30.184c-7.219 0-13.092 5.873-13.092 13.092s5.873 13.092 13.092 13.092 13.092-5.873 13.092-13.092-5.873-13.092-13.092-13.092z" fill="#3762cc"/><path d="m172.381 91.064c-.957-1.094-2.339-1.722-3.793-1.722h-132.471c-2.514 0-4.906 1.085-6.561 2.978s-2.413 4.407-2.078 6.901l10.226 75.946c.824 6.123 6.105 10.74 12.283 10.74h12.846 5.445 2.056 60.36 2.056 3.584 14.179c6.178 0 11.458-4.617 12.282-10.74l10.787-80.114c.193-1.441-.244-2.895-1.201-3.989zm-134.708 8.355h19.479l2.902 33.167h-17.916zm12.314 76.411c-1.154 0-2.141-.863-2.296-2.007l-4.196-31.159h17.439l2.902 33.166zm45.488 0h-21.521l-2.902-33.166h24.423zm0-43.244h-25.305l-2.902-33.167h28.206v33.167zm31.598 43.244h-21.521v-33.166h24.422zm3.783-43.244h-25.304v-33.167h28.206zm21.951 41.237c-.155 1.144-1.141 2.006-2.295 2.006h-13.322l2.901-33.166h16.911zm5.552-41.237h-17.386l2.901-33.167h18.95z" fill="#a4c9ff"/><path d="m156.789 185.907c3.728 0 6.76 3.252 6.76 7.248 0 3.997-3.032 7.248-6.76 7.248h-113.233c-2.783 0-5.039 2.256-5.039 5.039s2.256 5.039 5.039 5.039h113.233c9.284 0 16.838-7.772 16.838-17.326 0-7.514-4.681-13.908-11.194-16.303-1.479 5.263-6.325 9.055-11.921 9.055z" fill="#a4c9ff"/><g fill="#3762cc"><path d="m150.512 187.907h-100.525c-7.176 0-13.309-5.362-14.265-12.474l-10.226-75.945c-.413-3.065.519-6.158 2.554-8.485s4.975-3.661 8.066-3.661h132.471c2.031 0 3.962.877 5.299 2.406 1.336 1.528 1.948 3.559 1.677 5.572l-10.787 80.115c-.956 7.11-7.088 12.472-14.264 12.472zm-114.395-96.565c-1.938 0-3.78.836-5.056 2.295-1.276 1.458-1.859 3.397-1.601 5.318l10.226 75.945c.691 5.135 5.12 9.007 10.301 9.007h100.525c5.181 0 9.609-3.872 10.3-9.006l10.788-80.115c.117-.869-.147-1.746-.724-2.405 0 0 0 0-.001 0-.577-.66-1.411-1.039-2.287-1.039zm114.395 86.488h-13.322c-.561 0-1.096-.235-1.475-.649-.379-.413-.566-.967-.518-1.525l2.902-33.166c.09-1.033.955-1.826 1.992-1.826h16.911c.577 0 1.126.249 1.506.684.379.434.553 1.011.476 1.583l-4.195 31.16v.001c-.288 2.131-2.126 3.738-4.277 3.738zm-11.139-4h11.14c.152 0 .293-.123.313-.274l3.89-28.892h-12.792zm13.435-.007h.01zm-25.735 4.007h-21.521c-1.104 0-2-.896-2-2v-33.166c0-1.104.896-2 2-2h24.422c.561 0 1.096.235 1.475.649.379.413.567.967.518 1.525l-2.901 33.166c-.091 1.033-.956 1.826-1.993 1.826zm-19.521-4h17.688l2.551-29.166h-20.24v29.166zm-12.077 4h-21.521c-1.037 0-1.902-.792-1.992-1.826l-2.902-33.166c-.049-.559.139-1.112.518-1.525.379-.414.914-.649 1.475-.649h24.423c1.104 0 2 .896 2 2v33.166c-.001 1.104-.897 2-2.001 2zm-19.689-4h17.688v-29.166h-20.24zm-11.949 4h-13.85c-2.151 0-3.99-1.607-4.278-3.739l-4.195-31.16c-.077-.572.097-1.149.476-1.583.38-.435.929-.684 1.506-.684h17.439c1.037 0 1.902.792 1.992 1.826l2.902 33.166c.049.559-.139 1.112-.518 1.525-.378.413-.914.649-1.474.649zm-18.054-33.166 3.89 28.892c.021.15.162.274.314.274h11.667l-2.552-29.166zm112.576-10.078h-17.386c-.561 0-1.096-.235-1.475-.649-.379-.413-.566-.967-.518-1.525l2.901-33.167c.09-1.033.955-1.826 1.992-1.826h18.95c.577 0 1.126.249 1.506.684.379.434.553 1.011.476 1.583l-4.465 33.167c-.132.992-.979 1.733-1.981 1.733zm-15.203-4h13.455l3.927-29.167h-14.831zm-12.3 4h-25.304c-1.104 0-2-.896-2-2v-33.167c0-1.104.896-2 2-2h28.206c.561 0 1.096.235 1.475.649.379.413.567.967.518 1.525l-2.901 33.167c-.092 1.033-.956 1.826-1.994 1.826zm-23.304-4h21.472l2.551-29.167h-24.023zm-12.077 4h-25.305c-1.037 0-1.902-.792-1.992-1.826l-2.902-33.167c-.049-.559.139-1.112.518-1.525s.914-.649 1.475-.649h28.207c1.104 0 2 .896 2 2v33.167c-.001 1.104-.897 2-2.001 2zm-23.472-4h21.472v-29.167h-24.024zm-11.95 4h-17.914c-1.001 0-1.849-.741-1.982-1.733l-4.467-33.166c-.077-.572.097-1.149.476-1.583.38-.435.929-.684 1.506-.684h19.479c1.037 0 1.902.792 1.992 1.826l2.902 33.167c.049.559-.139 1.112-.518 1.525-.378.413-.913.648-1.474.648zm-16.166-4h13.983l-2.552-29.167h-15.358z"/><path d="m156.789 212.481h-113.233c-3.881 0-7.039-3.158-7.039-7.039s3.158-7.039 7.039-7.039h113.233c2.625 0 4.76-2.354 4.76-5.248s-2.135-5.249-4.76-5.249h-6.277c-1.104 0-2-.896-2-2s.896-2 2-2c4.628 0 8.739-3.124 9.996-7.596.151-.537.519-.986 1.016-1.24.497-.253 1.076-.289 1.6-.096 7.479 2.75 12.503 10.057 12.503 18.18 0 10.658-8.451 19.327-18.838 19.327zm-113.233-10.077c-1.675 0-3.039 1.363-3.039 3.039 0 1.675 1.363 3.039 3.039 3.039h113.233c8.182 0 14.838-6.875 14.838-15.326 0-5.767-3.171-11.009-8.063-13.611-.89 1.918-2.183 3.593-3.756 4.929 3.348 1.302 5.741 4.703 5.741 8.683 0 5.1-3.93 9.248-8.76 9.248h-113.233z"/></g></svg>