<svg height="512pt" viewBox="0 -29 512 512" width="512pt" xmlns="http://www.w3.org/2000/svg"><path d="m60.554688 39.550781v30.070313l35.070312 4.859375 36.417969-4.859375v-30.070313zm0 0" fill="#4f4f4f"/><path d="m60.554688 69.621094h71.488281v146.9375h-71.488281zm0 0" fill="#ff6200"/><path d="m451.445312 202.777344-195.445312-190.964844-10.691406 255.113281 10.691406 106.917969 195.445312-21.382812zm0 0" fill="#c3dce6"/><path d="m60.554688 202.777344v149.683594l195.445312 21.382812v-362.03125zm0 0" fill="#e1f0f5"/><path d="m293.417969 186.738281c0 20.667969-16.75 37.421875-37.417969 37.421875s-37.421875-16.753906-37.421875-37.421875c0-20.664062 16.753906-37.417969 37.421875-37.417969s37.417969 16.753907 37.417969 37.417969zm0 0" fill="#f3fffb"/><path d="m256 224.160156c20.667969 0 37.417969-16.753906 37.417969-37.417968 0-20.667969-16.753907-37.421876-37.417969-37.421876zm0 0" fill="#d9e7ec"/><path d="m256 134.285156-10.691406 15.035156 10.691406 15.035157c12.34375 0 22.382812 10.042969 22.382812 22.382812 0 12.34375-10.039062 22.386719-22.382812 22.386719l-10.691406 15.035156 10.691406 15.035156c28.925781 0 52.453125-23.53125 52.453125-52.457031.003906-28.921875-23.527344-52.453125-52.453125-52.453125zm0 0" fill="#8d9ca8"/><path d="m233.613281 186.738281c0-12.34375 10.042969-22.382812 22.386719-22.382812v-30.070313c-28.925781 0-52.457031 23.53125-52.457031 52.453125 0 28.925781 23.53125 52.457031 52.457031 52.457031v-30.070312c-12.34375 0-22.386719-10.042969-22.386719-22.386719zm0 0" fill="#aab8c7"/><path d="m256 0-10.691406 31.714844 10.691406 10.328125 234.984375 229.597656 21.015625-21.503906zm0 0" fill="#292929"/><path d="m0 250.136719 21.015625 21.503906 234.984375-229.597656v-42.042969zm0 0" fill="#4f4f4f"/><path d="m256 352.460938-10.691406 53.457031 74.839844 47.109375h131.296874v-100.566406zm0 0" fill="#fdae02"/><path d="m60.554688 352.460938v100.566406h131.054687l64.390625-100.566406zm0 0" fill="#fdcb02"/><path d="m320.390625 294.660156h-64.390625l-10.691406 79.183594 10.691406 79.183594h64.390625zm0 0" fill="#f04000"/><path d="m191.609375 294.660156h64.390625v158.367188h-64.390625zm0 0" fill="#ff6200"/></svg>