<?xml version="1.0" encoding="iso-8859-1"?>
<!-- Generator: Adobe Illustrator 19.0.0, SVG Export Plug-In . SVG Version: 6.00 Build 0)  -->
<svg version="1.1" id="Layer_1" xmlns="http://www.w3.org/2000/svg" xmlns:xlink="http://www.w3.org/1999/xlink" x="0px" y="0px"
	 viewBox="0 0 486.944 486.944" style="enable-background:new 0 0 486.944 486.944;" xml:space="preserve">
<g>
	<path style="fill:#FF9478;" d="M90.47,289.875h123.954V60H4.057l29.685,181.689C38.172,268.709,63.09,289.875,90.47,289.875z"/>
	<polygon style="fill:#FF7956;" points="369.501,289.875 407.181,60 214.425,60 214.425,289.875 	"/>
	<path style="fill:#2488FF;" d="M38.583,433.41c0,29.519,24.016,53.534,53.535,53.534V379.875
		C62.599,379.875,38.583,403.891,38.583,433.41z"/>
	<path style="fill:#2488FF;" d="M297.115,433.41c0,29.519,24.015,53.534,53.534,53.534V379.875
		C321.13,379.875,297.115,403.891,297.115,433.41z"/>
	<path style="fill:#005ECE;" d="M92.118,379.875v107.069c29.519,0,53.534-24.015,53.534-53.534S121.637,379.875,92.118,379.875z"/>
	<path style="fill:#005ECE;" d="M350.649,379.875v107.069c29.519,0,53.535-24.015,53.535-53.534S380.168,379.875,350.649,379.875z"
		/>
	<polygon style="fill:#2488FF;" points="417.016,0 364.583,319.875 58.583,319.875 58.583,359.875 398.561,359.875 450.993,40 
		482.887,40 482.887,0 	"/>
</g>
<g>
</g>
<g>
</g>
<g>
</g>
<g>
</g>
<g>
</g>
<g>
</g>
<g>
</g>
<g>
</g>
<g>
</g>
<g>
</g>
<g>
</g>
<g>
</g>
<g>
</g>
<g>
</g>
<g>
</g>
</svg>
