<svg height="472pt" viewBox="-20 0 472 472" width="472pt" xmlns="http://www.w3.org/2000/svg"><path d="m168 48c-13.253906 0-24-10.746094-24-24s10.746094-24 24-24 24 10.746094 24 24-10.746094 24-24 24zm0-32c-4.417969 0-8 3.582031-8 8s3.582031 8 8 8 8-3.582031 8-8-3.582031-8-8-8zm0 0" fill="#ff9811"/><path d="m32 56h272c17.671875 0 32 14.328125 32 32v352c0 17.671875-14.328125 32-32 32h-272c-17.671875 0-32-14.328125-32-32v-352c0-17.671875 14.328125-32 32-32zm0 0" fill="#3d9ae2"/><path d="m224 304c-.003906 48.195312 33.105469 90.078125 80 101.199219v18.800781c-.027344 8.824219-7.175781 15.972656-16 16h-240c-8.824219-.027344-15.972656-7.175781-16-16v-320c.027344-8.824219 7.175781-15.972656 16-16h24c.027344 8.824219 7.175781 15.972656 16 16h160c8.824219-.027344 15.972656-7.175781 16-16h24c8.824219.027344 15.972656 7.175781 16 16v98.800781c-46.894531 11.121094-80.003906 53.003907-80 101.199219zm0 0" fill="#e6e7e8"/><path d="m432 304c-.007812 54.332031-41.832031 99.5-96 103.679688-2.640625.242187-5.28125.320312-8 .320312-57.4375 0-104-46.5625-104-104s46.5625-104 104-104c2.671875-.027344 5.34375.105469 8 .398438 54.164062 4.125 96.007812 49.28125 96 103.601562zm0 0" fill="#00ccb3"/><path d="m408 304c-.023438 41.078125-31.132812 75.46875-72 79.601562-2.640625.238282-5.28125.398438-8 .398438-8.140625.011719-16.238281-1.226562-24-3.679688-33.335938-10.476562-56.015625-41.375-56.015625-76.320312s22.679687-65.84375 56.015625-76.320312c7.761719-2.453126 15.859375-3.691407 24-3.679688 2.71875 0 5.359375.160156 8 .398438 40.867188 4.132812 71.976562 38.523437 72 79.601562zm0 0" fill="#ffd422"/><path d="m368.160156 273.761719c-8.710937-8.734375-22.628906-9.429688-32.160156-1.601563v.078125c-.621094.464844-1.210938.972657-1.761719 1.523438l-6.238281 6.238281-6.238281-6.238281c-4.5-4.503907-10.597657-7.035157-16.960938-7.042969h-.800781c-9.554688.324219-18.007812 6.285156-21.519531 15.179688-3.507813 8.894531-1.402344 19.023437 5.359375 25.78125l40.160156 40.160156 40.160156-40.160156c9.359375-9.371094 9.359375-24.550782 0-33.917969zm0 0" fill="#ed1c24"/><path d="m80 272h64v64h-64zm0 0" fill="#ff6243"/><path d="m144 176v48h-64v-64h64zm0 0" fill="#ff6243"/><path d="m264 56v32c-.027344 8.824219-7.175781 15.972656-16 16h-160c-8.824219-.027344-15.972656-7.175781-16-16v-48h192zm0 0" fill="#ff9811"/><path d="m120 208c-2.121094 0-4.15625-.84375-5.65625-2.34375l-24-24 11.3125-11.3125 18.34375 18.34375 34.34375-34.34375 11.3125 11.3125-40 40c-1.5 1.5-3.535156 2.34375-5.65625 2.34375zm0 0" fill="#ffd422"/><g fill="#c6c5ca"><path d="m184 168h16v16h-16zm0 0"/><path d="m216 168h32v16h-32zm0 0"/><path d="m184 200h56v16h-56zm0 0"/></g></svg>